HIERARCHY
ROOT Hips
{
    OFFSET 0.000000 0.000000 0.000000
    CHANNELS 6 Xposition Yposition Zposition Zrotation Xrotation Yrotation
    JOINT Spine
    {
        OFFSET -0.000000 7.897928 0.000000
        CHANNELS 3 Zrotation Xrotation Yrotation
        JOINT Spine1
        {
            OFFSET -0.000000 22.881742 0.000000
            CHANNELS 3 Zrotation Xrotation Yrotation
            JOINT Neck
            {
                OFFSET -0.000000 22.787771 2.071616
                CHANNELS 3 Zrotation Xrotation Yrotation
                JOINT Head
                {
                    OFFSET -0.000000 13.484266 -1.926324
                    CHANNELS 3 Zrotation Xrotation Yrotation
                    End Site
                    {
                        OFFSET -0.000000 24.079046 0.000000
                    }
                }
            }
            JOINT LeftShoulder
            {
                OFFSET 3.854963 21.096247 -0.110468
                CHANNELS 3 Zrotation Xrotation Yrotation
                JOINT LeftArm
                {
                    OFFSET 10.572188 0.000000 0.000000
                    CHANNELS 3 Zrotation Xrotation Yrotation
                    JOINT LeftForeArm
                    {
                        OFFSET 34.932854 0.000000 0.000000
                        CHANNELS 3 Zrotation Xrotation Yrotation
                        JOINT LeftHand
                        {
                            OFFSET 23.279285 0.000000 0.000000
                            CHANNELS 3 Zrotation Xrotation Yrotation
                            End Site
                            {
                                OFFSET 14.447429 0.000000 0.000000
                            }
                        }
                    }
                }
            }
            JOINT RightShoulder
            {
                OFFSET -3.825334 21.096247 -0.110468
                CHANNELS 3 Zrotation Xrotation Yrotation
                JOINT RightArm
                {
                    OFFSET -10.572188 0.000000 0.000000
                    CHANNELS 3 Zrotation Xrotation Yrotation
                    JOINT RightForeArm
                    {
                        OFFSET -34.932854 0.000000 0.000000
                        CHANNELS 3 Zrotation Xrotation Yrotation
                        JOINT RightHand
                        {
                            OFFSET -23.279285 0.000000 0.000000
                            CHANNELS 3 Zrotation Xrotation Yrotation
                            End Site
                            {
                                OFFSET -14.447429 0.000000 0.000000
                            }
                        }
                    }
                }
            }
        }
    }
    JOINT LeftUpLeg
    {
        OFFSET 9.631618 0.000000 0.000000
        CHANNELS 3 Zrotation Xrotation Yrotation
        JOINT LeftLeg
        {
            OFFSET -0.000000 -35.385456 0.000000
            CHANNELS 3 Zrotation Xrotation Yrotation
            JOINT LeftFoot
            {
                OFFSET -0.000000 -43.284000 0.000000
                CHANNELS 3 Zrotation Xrotation Yrotation
                JOINT LeftToeBase
                {
                    OFFSET -0.000000 -6.260552 14.447429
                    CHANNELS 3 Zrotation Xrotation Yrotation
                    End Site
                    {
                        OFFSET -0.000000 0.000000 3.852648
                    }
                }
            }
        }
    }
    JOINT RightUpLeg
    {
        OFFSET -9.631618 0.000000 0.000000
        CHANNELS 3 Zrotation Xrotation Yrotation
        JOINT RightLeg
        {
            OFFSET -0.000000 -35.385456 0.000000
            CHANNELS 3 Zrotation Xrotation Yrotation
            JOINT RightFoot
            {
                OFFSET -0.000000 -43.284000 0.000000
                CHANNELS 3 Zrotation Xrotation Yrotation
                JOINT RightToeBase
                {
                    OFFSET -0.000000 -6.260552 14.447429
                    CHANNELS 3 Zrotation Xrotation Yrotation
                    End Site
                    {
                        OFFSET -0.000000 0.000000 3.852648
                    }
                }
            }
        }
    }
}
MOTION
Frames:    10
Frame Time:    0.008333
-188.554138    89.223984    26.357666    -1.103734    -1.457587    89.046638    2.379316    -4.789171    -0.623780    -1.997266    -0.474698    -0.731592    -2.270000    13.000983    -9.071808    9.254743    3.758055    -8.364398    20.613045    2.148718    3.893394    -16.185221    12.121488    -5.034969    2.904070    -7.133618    0.900656    -4.023750    -7.057877    -2.822371    -16.409714    -1.271301    9.036965    13.244810    3.806069    -0.699830    -0.872694    -2.042109    -0.523177    -2.937338    -2.208814    6.343927    3.953697    4.111955    3.609879    -4.468623    4.146435    -2.053679    -0.038316    -7.585222    16.995102    0.000000    0.000000    0.000000    -2.653922    0.373316    2.732323    4.275741    6.976110    1.196629    -0.434231    -6.296113    -11.010021    0.000000    0.000000    0.000000    
-188.563461    89.226082    26.354576    -1.095057    -1.449564    89.038063    2.383531    -4.799123    -0.629527    -2.002416    -0.440776    -0.737092    -2.394795    13.354285    -9.114869    9.495600    3.242862    -8.344520    20.636608    2.124016    3.939130    -16.171873    11.951510    -5.052953    2.734944    -7.015214    0.769971    -3.850060    -6.944041    -2.679533    -16.438105    -1.269428    9.025048    13.252687    3.848244    -0.665012    -0.919594    -2.155018    -0.512104    -2.906900    -2.323615    6.481311    3.941105    4.128539    3.613039    -4.470898    4.122335    -2.078212    -0.045261    -7.571483    17.031351    0.000000    0.000000    0.000000    -2.659199    0.396842    2.812262    4.274083    6.927134    1.101043    -0.405729    -6.280046    -10.996467    0.000000    0.000000    0.000000    
-188.580582    89.226868    26.347292    -1.112818    -1.440479    89.011543    2.376600    -4.830384    -0.616721    -1.979472    -0.400795    -0.723921    -2.422430    13.311273    -9.118712    9.469380    3.276650    -8.352554    20.662607    2.090283    3.971376    -16.255398    12.220653    -5.139552    2.932377    -6.987257    0.896267    -4.165608    -6.910549    -2.755558    -16.551134    -1.285802    9.055845    13.345928    3.882368    -0.717281    -0.950974    -2.187768    -0.492238    -2.810371    -2.353767    6.598754    3.922240    4.118357    3.592639    -4.470486    4.093952    -2.028559    -0.041801    -7.553873    17.028021    0.000000    0.000000    0.000000    -2.675078    0.361509    2.835236    4.281585    6.927485    1.117305    -0.432728    -6.266373    -11.012434    0.000000    0.000000    0.000000    
-188.597015    89.224152    26.340528    -1.146243    -1.436485    88.990387    2.393058    -4.869494    -0.614867    -1.989557    -0.395227    -0.723530    -2.450376    13.275155    -9.099592    9.457059    3.360820    -8.339306    20.681814    2.086073    3.981335    -16.294357    12.201459    -5.161478    2.884804    -6.958063    0.853554    -3.923725    -6.889220    -2.651731    -16.571098    -1.299166    9.068754    13.308924    3.822605    -0.712644    -0.868454    -2.136439    -0.471720    -2.730688    -2.298916    6.663043    3.907753    4.082876    3.617641    -4.462193    4.083217    -1.989237    -0.027101    -7.546849    16.986153    0.000000    0.000000    0.000000    -2.685628    0.320638    2.877303    4.287982    6.910970    1.042924    -0.414917    -6.263588    -10.962606    0.000000    0.000000    0.000000    
-188.607315    89.224937    26.336372    -1.149076    -1.428561    88.984360    2.400654    -4.879654    -0.611249    -2.013298    -0.394971    -0.720559    -2.455355    13.338154    -9.085567    9.475494    3.293549    -8.318331    20.721939    2.076576    3.964735    -16.316174    11.965852    -5.128475    2.765301    -6.809018    0.713435    -3.843849    -6.738944    -2.615913    -16.551121    -1.328571    9.072272    13.287888    3.840198    -0.718936    -0.867381    -2.083276    -0.474668    -2.527020    -2.234171    6.675181    3.896828    4.087696    3.613544    -4.464294    4.059989    -1.997312    -0.026708    -7.532179    17.002867    0.000000    0.000000    0.000000    -2.694998    0.299413    2.856934    4.284791    6.922073    1.025359    -0.390201    -6.263166    -10.920818    0.000000    0.000000    0.000000    
-188.619232    89.226257    26.328840    -1.157176    -1.422378    88.976303    2.422271    -4.857554    -0.622622    -2.027570    -0.488774    -0.734042    -2.516581    13.455914    -9.053391    9.508168    3.261391    -8.279460    20.677540    2.101805    3.923337    -16.347628    12.102312    -5.122381    2.903059    -6.902419    0.804398    -3.960722    -6.830198    -2.693370    -16.552258    -1.274705    9.141796    13.305559    3.895257    -0.721693    -0.937783    -2.033537    -0.514643    -2.242053    -2.168773    6.692331    3.880584    4.080523    3.625765    -4.454724    4.044630    -1.968041    -0.021796    -7.515950    16.962030    0.000000    0.000000    0.000000    -2.705811    0.286006    2.849020    4.281871    6.923549    1.100818    -0.382632    -6.258575    -10.993691    0.000000    0.000000    0.000000    
-188.630920    89.223251    26.325821    -1.129676    -1.427016    88.959473    2.444605    -4.799041    -0.624472    -2.044667    -0.559856    -0.736912    -2.491504    13.493785    -9.032993    9.436061    3.290673    -8.270308    20.679651    2.098530    3.910608    -16.380404    12.066154    -5.113638    2.916711    -6.990883    0.793232    -3.952839    -6.917792    -2.718724    -16.544836    -1.250749    9.179990    13.292044    3.834059    -0.726645    -0.946981    -1.980442    -0.516181    -1.948450    -2.097881    6.651540    3.877223    4.117368    3.606558    -4.454588    4.016819    -1.919514    -0.010672    -7.521817    16.953350    0.000000    0.000000    0.000000    -2.698201    0.308142    2.866136    4.273176    6.915816    1.087183    -0.390745    -6.260400    -10.975393    0.000000    0.000000    0.000000    
-188.642990    89.221931    26.320547    -1.131265    -1.418689    88.955460    2.468200    -4.783305    -0.633717    -2.088478    -0.621818    -0.748228    -2.509845    13.595844    -9.011207    9.454672    3.244316    -8.243555    20.679243    2.121517    3.890360    -16.397346    11.958334    -5.099403    2.923541    -7.129519    0.783953    -4.025251    -7.053362    -2.752800    -16.524191    -1.249276    9.218276    13.281857    3.815528    -0.733776    -0.975234    -1.985425    -0.503444    -1.455192    -2.072971    6.554399    3.864300    4.112174    3.658413    -4.451424    4.016806    -2.011908    -0.003982    -7.525735    17.007429    0.000000    0.000000    0.000000    -2.711767    0.293124    2.880835    4.279524    6.916111    0.990914    -0.382300    -6.259811    -10.891019    0.000000    0.000000    0.000000    
-188.651871    89.220688    26.316076    -1.131142    -1.423588    88.943481    2.497450    -4.783960    -0.628615    -2.130931    -0.647419    -0.745034    -2.480048    13.672409    -9.009899    9.442423    3.197801    -8.242302    20.698833    2.112538    3.871774    -16.418161    11.915098    -5.116760    2.940184    -7.290269    0.831665    -4.058944    -7.214122    -2.768453    -16.492414    -1.222967    9.252130    13.271821    3.778461    -0.769483    -0.975151    -2.007239    -0.479382    -1.333227    -2.086650    6.473122    3.866780    4.114815    3.666181    -4.455500    4.008114    -2.006715    0.007024    -7.523102    17.006857    0.000000    0.000000    0.000000    -2.713516    0.288838    2.900841    4.282717    6.919523    1.094230    -0.362971    -6.271817    -11.003046    0.000000    0.000000    0.000000    
-188.658783    89.217911    26.315807    -1.119116    -1.437076    88.941597    2.514319    -4.783954    -0.628843    -2.137504    -0.646747    -0.745940    -2.477601    13.660851    -9.002554    9.426850    3.265867    -8.241787    20.707844    2.098696    3.859410    -16.442642    11.803773    -5.112040    2.952844    -7.422004    0.805061    -4.112808    -7.345709    -2.720196    -16.499601    -1.216769    9.250366    13.274145    3.744309    -0.765198    -0.942417    -2.039039    -0.473426    -1.411483    -2.121222    6.353247    3.879564    4.128301    3.646418    -4.452789    4.001831    -1.998740    0.009533    -7.536620    17.010399    0.000000    0.000000    0.000000    -2.707817    0.291817    2.946213    4.301509    6.917467    0.944700    -0.371639    -6.263528    -10.889264    0.000000    0.000000    0.000000    
